<svg xmlns="http://www.w3.org/2000/svg" viewBox="0 0 157.79 120.67"><defs><style>.cls-1{fill:#067fc2;}.cls-2{fill:#f39e21;}</style></defs><g id="Layer_2" data-name="Layer 2"><g id="Layer_1-2" data-name="Layer 1"><path class="cls-1" d="M155,60v48.65q0,6-3.73,9a15.87,15.87,0,0,1-18.6,0q-3.74-3-3.73-9v-51c0-.56,0-1.1.07-1.61a19.84,19.84,0,0,0,12.06,4.06,19.6,19.6,0,0,0,7.4-1.42l3.59,1.15A5.75,5.75,0,0,0,155,60Z"/><path class="cls-1" d="M100.09,3Q96.46,0,89,0H14.69Q7.27,0,3.63,3T0,12.49C0,16.78,1.21,20,3.63,22s6.11,3.13,11.06,3.13H33.82v80.31q0,6.91,4.3,11.06A14.46,14.46,0,0,0,45,120.19a21.19,21.19,0,0,0,9,0,14.42,14.42,0,0,0,6.91-3.66q4.3-4.14,4.31-11.06V25.16h15.3A23.1,23.1,0,0,1,102.26,5.72,8.86,8.86,0,0,0,100.09,3Z"/><path class="cls-1" d="M118.35,48.12v58.7q0,6.93-4.31,10.38a16.53,16.53,0,0,1-10.72,3.47A16.57,16.57,0,0,1,92.6,117.2q-4.3-3.45-4.3-10.38v-55h.27a6.5,6.5,0,0,0,2-.33l4.16-1.32a23.06,23.06,0,0,0,23.5-3.87A17.22,17.22,0,0,1,118.35,48.12Z"/><path class="cls-2" d="M103.48,9.42h-.16A19.35,19.35,0,0,0,84,28.76,19.16,19.16,0,0,0,87,39l-1.22,5.53A2.92,2.92,0,0,0,88.3,48.1h.26a3.13,3.13,0,0,0,.9-.14L95,46.21a19.34,19.34,0,1,0,8.5-36.79Zm-.16,36.17a16.26,16.26,0,0,1-16.11-14.2,1.81,1.81,0,0,1,1.79-2h28.65a1.82,1.82,0,0,1,1.79,2A16.26,16.26,0,0,1,103.32,45.59Z"/><path class="cls-2" d="M155.24,49a16.69,16.69,0,0,0,2.27-11.91,16.65,16.65,0,0,0-16.34-13.53H141a16.62,16.62,0,1,0,7.3,31.62l4.74,1.5a2.35,2.35,0,0,0,.77.13h.23a2.52,2.52,0,0,0,2.21-3Zm-14.13,5.64a14,14,0,0,1-13.87-12.42,1.4,1.4,0,0,1,1.39-1.54h25A1.4,1.4,0,0,1,155,42.21,14,14,0,0,1,141.11,54.63Z"/></g></g></svg>